<svg width="140" height="24" viewBox="0 0 140 24" fill="none" xmlns="http://www.w3.org/2000/svg">
<path d="M7.008 17.168C5.904 17.168 4.928 16.976 4.08 16.592C3.248 16.208 2.592 15.672 2.112 14.984C1.632 14.296 1.376 13.528 1.344 12.68H3.12C3.2 13.496 3.56 14.216 4.2 14.84C4.84 15.448 5.776 15.752 7.008 15.752C8.144 15.752 9.04 15.464 9.696 14.888C10.368 14.296 10.704 13.552 10.704 12.656C10.704 11.936 10.52 11.36 10.152 10.928C9.784 10.48 9.328 10.152 8.784 9.944C8.24 9.72 7.488 9.48 6.528 9.224C5.408 8.92 4.52 8.624 3.864 8.336C3.208 8.048 2.648 7.6 2.184 6.992C1.72 6.384 1.488 5.56 1.488 4.52C1.488 3.656 1.712 2.888 2.16 2.216C2.608 1.528 3.24 0.991999 4.056 0.607999C4.872 0.224 5.808 0.0319996 6.864 0.0319996C8.416 0.0319996 9.664 0.415999 10.608 1.184C11.568 1.936 12.12 2.912 12.264 4.112H10.44C10.328 3.424 9.952 2.816 9.312 2.288C8.672 1.744 7.808 1.472 6.72 1.472C5.712 1.472 4.872 1.744 4.2 2.288C3.528 2.816 3.192 3.544 3.192 4.472C3.192 5.176 3.376 5.744 3.744 6.176C4.112 6.608 4.568 6.936 5.112 7.16C5.672 7.384 6.424 7.624 7.368 7.88C8.456 8.184 9.336 8.488 10.008 8.792C10.68 9.08 11.248 9.528 11.712 10.136C12.176 10.744 12.408 11.56 12.408 12.584C12.408 13.368 12.2 14.112 11.784 14.816C11.368 15.52 10.752 16.088 9.936 16.52C9.12 16.952 8.144 17.168 7.008 17.168ZM14.8864 10.424C14.8864 9.08 15.1504 7.904 15.6784 6.896C16.2224 5.872 16.9664 5.088 17.9104 4.544C18.8704 3.984 19.9504 3.704 21.1504 3.704C22.3984 3.704 23.4704 3.992 24.3664 4.568C25.2784 5.144 25.9344 5.88 26.3344 6.776V3.896H28.0144V17H26.3344V14.096C25.9184 14.992 25.2544 15.736 24.3424 16.328C23.4464 16.904 22.3744 17.192 21.1264 17.192C19.9424 17.192 18.8704 16.912 17.9104 16.352C16.9664 15.792 16.2224 15 15.6784 13.976C15.1504 12.952 14.8864 11.768 14.8864 10.424ZM26.3344 10.448C26.3344 9.392 26.1184 8.464 25.6864 7.664C25.2544 6.864 24.6624 6.248 23.9104 5.816C23.1744 5.384 22.3584 5.168 21.4624 5.168C20.5344 5.168 19.7024 5.376 18.9664 5.792C18.2304 6.208 17.6464 6.816 17.2144 7.616C16.7984 8.4 16.5904 9.336 16.5904 10.424C16.5904 11.496 16.7984 12.44 17.2144 13.256C17.6464 14.056 18.2304 14.672 18.9664 15.104C19.7024 15.52 20.5344 15.728 21.4624 15.728C22.3584 15.728 23.1744 15.512 23.9104 15.08C24.6624 14.648 25.2544 14.032 25.6864 13.232C26.1184 12.432 26.3344 11.504 26.3344 10.448ZM36.5057 15.368L40.9217 3.896H42.6977L37.4417 17H35.5457L30.2897 3.896H32.0897L36.5057 15.368ZM56.8307 9.776C56.8307 10.352 56.8147 10.792 56.7827 11.096H45.9107C45.9587 12.088 46.1987 12.936 46.6307 13.64C47.0627 14.344 47.6307 14.88 48.3347 15.248C49.0387 15.6 49.8067 15.776 50.6387 15.776C51.7267 15.776 52.6387 15.512 53.3747 14.984C54.1267 14.456 54.6227 13.744 54.8627 12.848H56.6387C56.3187 14.128 55.6307 15.176 54.5747 15.992C53.5347 16.792 52.2227 17.192 50.6387 17.192C49.4067 17.192 48.3027 16.92 47.3267 16.376C46.3507 15.816 45.5827 15.032 45.0227 14.024C44.4787 13 44.2067 11.808 44.2067 10.448C44.2067 9.088 44.4787 7.896 45.0227 6.872C45.5667 5.848 46.3267 5.064 47.3027 4.52C48.2787 3.976 49.3907 3.704 50.6387 3.704C51.8867 3.704 52.9747 3.976 53.9027 4.52C54.8467 5.064 55.5667 5.8 56.0627 6.728C56.5747 7.64 56.8307 8.656 56.8307 9.776ZM55.1267 9.728C55.1427 8.752 54.9427 7.92 54.5267 7.232C54.1267 6.544 53.5747 6.024 52.8707 5.672C52.1667 5.32 51.3987 5.144 50.5667 5.144C49.3187 5.144 48.2547 5.544 47.3747 6.344C46.4947 7.144 46.0067 8.272 45.9107 9.728H55.1267Z" fill="#231F20"/>
<path d="M77.3524 0.319999V17H74.6164V5.576L69.5284 17H67.6324L62.5204 5.576V17H59.7844V0.319999H62.7364L68.5924 13.4L74.4244 0.319999H77.3524ZM86.6844 17.216C85.4364 17.216 84.3084 16.936 83.3004 16.376C82.2924 15.8 81.5004 15 80.9244 13.976C80.3484 12.936 80.0604 11.736 80.0604 10.376C80.0604 9.032 80.3564 7.84 80.9484 6.8C81.5404 5.76 82.3484 4.96 83.3724 4.4C84.3964 3.84 85.5404 3.56 86.8044 3.56C88.0684 3.56 89.2124 3.84 90.2364 4.4C91.2604 4.96 92.0684 5.76 92.6604 6.8C93.2524 7.84 93.5484 9.032 93.5484 10.376C93.5484 11.72 93.2444 12.912 92.6364 13.952C92.0284 14.992 91.1964 15.8 90.1404 16.376C89.1004 16.936 87.9484 17.216 86.6844 17.216ZM86.6844 14.84C87.3884 14.84 88.0444 14.672 88.6524 14.336C89.2764 14 89.7804 13.496 90.1644 12.824C90.5484 12.152 90.7404 11.336 90.7404 10.376C90.7404 9.416 90.5564 8.608 90.1884 7.952C89.8204 7.28 89.3324 6.776 88.7244 6.44C88.1164 6.104 87.4604 5.936 86.7564 5.936C86.0524 5.936 85.3964 6.104 84.7884 6.44C84.1964 6.776 83.7244 7.28 83.3724 7.952C83.0204 8.608 82.8444 9.416 82.8444 10.376C82.8444 11.8 83.2044 12.904 83.9244 13.688C84.6604 14.456 85.5804 14.84 86.6844 14.84ZM102.925 3.56C103.965 3.56 104.893 3.776 105.709 4.208C106.541 4.64 107.189 5.28 107.653 6.128C108.117 6.976 108.349 8 108.349 9.2V17H105.637V9.608C105.637 8.424 105.341 7.52 104.749 6.896C104.157 6.256 103.349 5.936 102.325 5.936C101.301 5.936 100.485 6.256 99.8771 6.896C99.2851 7.52 98.9891 8.424 98.9891 9.608V17H96.2531V3.776H98.9891V5.288C99.4371 4.744 100.005 4.32 100.693 4.016C101.397 3.712 102.141 3.56 102.925 3.56ZM123.959 10.064C123.959 10.56 123.927 11.008 123.863 11.408H113.759C113.839 12.464 114.231 13.312 114.935 13.952C115.639 14.592 116.503 14.912 117.527 14.912C118.999 14.912 120.039 14.296 120.647 13.064H123.599C123.199 14.28 122.471 15.28 121.415 16.064C120.375 16.832 119.079 17.216 117.527 17.216C116.263 17.216 115.127 16.936 114.119 16.376C113.127 15.8 112.343 15 111.767 13.976C111.207 12.936 110.927 11.736 110.927 10.376C110.927 9.016 111.199 7.824 111.743 6.8C112.303 5.76 113.079 4.96 114.071 4.4C115.079 3.84 116.231 3.56 117.527 3.56C118.775 3.56 119.887 3.832 120.863 4.376C121.839 4.92 122.599 5.688 123.143 6.68C123.687 7.656 123.959 8.784 123.959 10.064ZM121.103 9.2C121.087 8.192 120.727 7.384 120.023 6.776C119.319 6.168 118.447 5.864 117.407 5.864C116.463 5.864 115.655 6.168 114.983 6.776C114.311 7.368 113.911 8.176 113.783 9.2H121.103ZM138.556 3.776L130.444 23.216H127.612L130.3 16.784L125.092 3.776H128.14L131.86 13.856L135.724 3.776H138.556Z" fill="#7F4991"/>
</svg>
