<svg width="243" height="41" viewBox="0 0 243 41" fill="none" xmlns="http://www.w3.org/2000/svg">
<path d="M12.264 29.988C10.332 29.988 8.624 29.652 7.14 28.98C5.684 28.308 4.536 27.37 3.696 26.166C2.856 24.962 2.408 23.618 2.352 22.134H5.46C5.6 23.562 6.23 24.822 7.35 25.914C8.47 26.978 10.108 27.51 12.264 27.51C14.252 27.51 15.82 27.006 16.968 25.998C18.144 24.962 18.732 23.66 18.732 22.092C18.732 20.832 18.41 19.824 17.766 19.068C17.122 18.284 16.324 17.71 15.372 17.346C14.42 16.954 13.104 16.534 11.424 16.086C9.464 15.554 7.91 15.036 6.762 14.532C5.614 14.028 4.634 13.244 3.822 12.18C3.01 11.116 2.604 9.674 2.604 7.854C2.604 6.342 2.996 4.998 3.78 3.822C4.564 2.618 5.67 1.68 7.098 1.008C8.526 0.335999 10.164 -4.76837e-07 12.012 -4.76837e-07C14.728 -4.76837e-07 16.912 0.671999 18.564 2.016C20.244 3.332 21.21 5.04 21.462 7.14H18.27C18.074 5.936 17.416 4.872 16.296 3.948C15.176 2.996 13.664 2.52 11.76 2.52C9.996 2.52 8.526 2.996 7.35 3.948C6.174 4.872 5.586 6.146 5.586 7.77C5.586 9.002 5.908 9.996 6.552 10.752C7.196 11.508 7.994 12.082 8.946 12.474C9.926 12.866 11.242 13.286 12.894 13.734C14.798 14.266 16.338 14.798 17.514 15.33C18.69 15.834 19.684 16.618 20.496 17.682C21.308 18.746 21.714 20.174 21.714 21.966C21.714 23.338 21.35 24.64 20.622 25.872C19.894 27.104 18.816 28.098 17.388 28.854C15.96 29.61 14.252 29.988 12.264 29.988ZM26.0512 18.186C26.0512 15.834 26.5132 13.776 27.4372 12.012C28.3892 10.22 29.6912 8.848 31.3432 7.896C33.0232 6.916 34.9132 6.426 37.0132 6.426C39.1972 6.426 41.0732 6.93 42.6412 7.938C44.2372 8.946 45.3852 10.234 46.0852 11.802V6.762H49.0252V29.694H46.0852V24.612C45.3572 26.18 44.1952 27.482 42.5992 28.518C41.0312 29.526 39.1552 30.03 36.9712 30.03C34.8992 30.03 33.0232 29.54 31.3432 28.56C29.6912 27.58 28.3892 26.194 27.4372 24.402C26.5132 22.61 26.0512 20.538 26.0512 18.186ZM46.0852 18.228C46.0852 16.38 45.7072 14.756 44.9512 13.356C44.1952 11.956 43.1592 10.878 41.8432 10.122C40.5552 9.366 39.1272 8.988 37.5592 8.988C35.9352 8.988 34.4792 9.352 33.1912 10.08C31.9032 10.808 30.8812 11.872 30.1252 13.272C29.3972 14.644 29.0332 16.282 29.0332 18.186C29.0332 20.062 29.3972 21.714 30.1252 23.142C30.8812 24.542 31.9032 25.62 33.1912 26.376C34.4792 27.104 35.9352 27.468 37.5592 27.468C39.1272 27.468 40.5552 27.09 41.8432 26.334C43.1592 25.578 44.1952 24.5 44.9512 23.1C45.7072 21.7 46.0852 20.076 46.0852 18.228ZM63.885 26.838L71.613 6.762H74.721L65.523 29.694H62.205L53.007 6.762H56.157L63.885 26.838ZM99.4537 17.052C99.4537 18.06 99.4257 18.83 99.3697 19.362H80.3437C80.4277 21.098 80.8477 22.582 81.6037 23.814C82.3597 25.046 83.3537 25.984 84.5857 26.628C85.8177 27.244 87.1617 27.552 88.6177 27.552C90.5217 27.552 92.1177 27.09 93.4057 26.166C94.7217 25.242 95.5897 23.996 96.0097 22.428H99.1177C98.5577 24.668 97.3537 26.502 95.5057 27.93C93.6857 29.33 91.3897 30.03 88.6177 30.03C86.4617 30.03 84.5297 29.554 82.8217 28.602C81.1137 27.622 79.7697 26.25 78.7897 24.486C77.8377 22.694 77.3617 20.608 77.3617 18.228C77.3617 15.848 77.8377 13.762 78.7897 11.97C79.7417 10.178 81.0717 8.806 82.7797 7.854C84.4877 6.902 86.4337 6.426 88.6177 6.426C90.8017 6.426 92.7057 6.902 94.3297 7.854C95.9817 8.806 97.2417 10.094 98.1097 11.718C99.0057 13.314 99.4537 15.092 99.4537 17.052ZM96.4717 16.968C96.4997 15.26 96.1497 13.804 95.4217 12.6C94.7217 11.396 93.7557 10.486 92.5237 9.87C91.2917 9.254 89.9477 8.946 88.4917 8.946C86.3077 8.946 84.4457 9.646 82.9057 11.046C81.3657 12.446 80.5117 14.42 80.3437 16.968H96.4717ZM135.367 0.503998V29.694H130.579V9.702L121.675 29.694H118.357L109.411 9.702V29.694H104.623V0.503998H109.789L120.037 23.394L130.243 0.503998H135.367ZM151.698 30.072C149.514 30.072 147.54 29.582 145.776 28.602C144.012 27.594 142.626 26.194 141.618 24.402C140.61 22.582 140.106 20.482 140.106 18.102C140.106 15.75 140.624 13.664 141.66 11.844C142.696 10.024 144.11 8.624 145.902 7.644C147.694 6.664 149.696 6.174 151.908 6.174C154.12 6.174 156.122 6.664 157.914 7.644C159.706 8.624 161.12 10.024 162.156 11.844C163.192 13.664 163.71 15.75 163.71 18.102C163.71 20.454 163.178 22.54 162.114 24.36C161.05 26.18 159.594 27.594 157.746 28.602C155.926 29.582 153.91 30.072 151.698 30.072ZM151.698 25.914C152.93 25.914 154.078 25.62 155.142 25.032C156.234 24.444 157.116 23.562 157.788 22.386C158.46 21.21 158.796 19.782 158.796 18.102C158.796 16.422 158.474 15.008 157.83 13.86C157.186 12.684 156.332 11.802 155.268 11.214C154.204 10.626 153.056 10.332 151.824 10.332C150.592 10.332 149.444 10.626 148.38 11.214C147.344 11.802 146.518 12.684 145.902 13.86C145.286 15.008 144.978 16.422 144.978 18.102C144.978 20.594 145.608 22.526 146.868 23.898C148.156 25.242 149.766 25.914 151.698 25.914ZM180.119 6.174C181.939 6.174 183.563 6.552 184.991 7.308C186.447 8.064 187.581 9.184 188.393 10.668C189.205 12.152 189.611 13.944 189.611 16.044V29.694H184.865V16.758C184.865 14.686 184.347 13.104 183.311 12.012C182.275 10.892 180.861 10.332 179.069 10.332C177.277 10.332 175.849 10.892 174.785 12.012C173.749 13.104 173.231 14.686 173.231 16.758V29.694H168.443V6.552H173.231V9.198C174.015 8.246 175.009 7.504 176.213 6.972C177.445 6.44 178.747 6.174 180.119 6.174ZM216.928 17.556C216.928 18.424 216.872 19.208 216.76 19.908H199.078C199.218 21.756 199.904 23.24 201.136 24.36C202.368 25.48 203.88 26.04 205.672 26.04C208.248 26.04 210.068 24.962 211.132 22.806H216.298C215.598 24.934 214.324 26.684 212.476 28.056C210.656 29.4 208.388 30.072 205.672 30.072C203.46 30.072 201.472 29.582 199.708 28.602C197.972 27.594 196.6 26.194 195.592 24.402C194.612 22.582 194.122 20.482 194.122 18.102C194.122 15.722 194.598 13.636 195.55 11.844C196.53 10.024 197.888 8.624 199.624 7.644C201.388 6.664 203.404 6.174 205.672 6.174C207.856 6.174 209.802 6.65 211.51 7.602C213.218 8.554 214.548 9.898 215.5 11.634C216.452 13.342 216.928 15.316 216.928 17.556ZM211.93 16.044C211.902 14.28 211.272 12.866 210.04 11.802C208.808 10.738 207.282 10.206 205.462 10.206C203.81 10.206 202.396 10.738 201.22 11.802C200.044 12.838 199.344 14.252 199.12 16.044H211.93ZM242.472 6.552L228.276 40.572H223.32L228.024 29.316L218.91 6.552H224.244L230.754 24.192L237.516 6.552H242.472Z" fill="white"/>
</svg>
